<?xml version="1.0" encoding="utf-8"?>
<!-- Generator: Adobe Illustrator 19.1.0, SVG Export Plug-In . SVG Version: 6.00 Build 0)  -->
<!DOCTYPE svg PUBLIC "-//W3C//DTD SVG 1.1//EN" "http://www.w3.org/Graphics/SVG/1.1/DTD/svg11.dtd">
<svg version="1.1" id="Layer_1" xmlns="http://www.w3.org/2000/svg" xmlns:xlink="http://www.w3.org/1999/xlink" x="0px" y="0px"
	 viewBox="0 0 298 183" style="enable-background:new 0 0 298 183;" xml:space="preserve">
<style type="text/css">
	.st0{fill:#372772;}
	.st1{fill:#FFFFFF;}
	.st2{fill:#787583;}
</style>
<g id="XMLID_16_">
	<path id="XMLID_30_" class="st1" d="M25.7,0c-13.3,0-24,10.8-24,24v89.2l0.9,0.9h7.8l0.9-0.9V24c0-8,6.5-14.5,14.5-14.5h248.2
		c8,0,14.5,6.5,14.5,14.5v134.2c0,8-6.5,14.5-14.5,14.5h-35.5l-0.9,0.9v7.7l0.9,0.9h35.5c13.3,0,24-10.8,24-24V24
		c0-13.3-10.8-24-24-24"/>
	<g id="XMLID_17_">
		<path id="XMLID_27_" class="st1" d="M92.8,182.1h-9.4l-0.9-0.9l-0.9-1.7h-0.9c0,0-3.4,3.4-9.4,3.4c-9.4,0-15.3-5.1-15.3-13.6
			c0-12.8,11.9-14.5,18.8-14.5c3.4,0,6,0.9,6,0.9l0.9-0.9V154c0-4.3-0.9-5.1-6-5.1c-2.6,0-5.1,0-6,2.6l-0.9,0.9H58.7l-0.9-0.9
			c0-5.1,4.3-12.8,17.9-12.8s17.9,6.8,17.9,19.6v23L92.8,182.1z M80.9,164.2c0,0-1.7-0.9-5.1-0.9c-5.1,0-7.7,1.7-7.7,5.1
			c0,2.6,1.7,4.3,6,4.3s7.7-2.6,7.7-6v-1.7L80.9,164.2z"/>
		<path id="XMLID_25_" class="st1" d="M41.8,164.2l0.9-0.9h10.2l0.9,0.9C52,176.2,42.6,183,29,183c-18.8,0-29-12.8-29-30.7
			s10.2-30.7,29-30.7c13.6,0,23,6.8,24.7,17.9l-0.9,0.9H42.6l-0.9-0.9c-1.7-5.1-6-7.7-12.8-7.7c-11.9,0-17.1,8.5-17.1,20.5
			s5.1,20.5,17.1,20.5C35.8,172.8,40.1,170.2,41.8,164.2z"/>
		<path id="XMLID_23_" class="st1" d="M126.8,149.7h-6c-6.8,0-9.4,3.4-9.4,11.1v20.5l-0.9,0.9h-10.2l-0.9-0.9v-40.9l0.9-0.9h9.4
			l0.9,0.9l0.9,2.6h0.9c0,0,1.7-3.4,9.4-3.4h5.1l0.9,0.9v8.5L126.8,149.7z"/>
		<path id="XMLID_20_" class="st1" d="M146.6,138.7c7.7,0,11.1,4.3,11.1,4.3h0.9v-19.6l0.9-0.9h10.2l0.9,0.9v58l-0.9,0.9h-9.4
			l-0.9-0.9l-0.9-2.6h-0.9c0,0-3.4,4.3-11.1,4.3c-10.2,0-18.8-8.5-18.8-22.2S136.4,138.7,146.6,138.7z M149.2,172.8
			c6.8,0,9.4-5.1,9.4-11.9s-2.6-11.9-9.4-11.9s-9.4,5.1-9.4,11.9S142.4,172.8,149.2,172.8z"/>
		<path id="XMLID_18_" class="st1" d="M225.2,182.1h-6l-1.7-0.9L201.3,160h-0.9l-16.2,21.3l-1.7,0.9h-6l-0.9-0.9v-8.5l17.1-21.3
			v-0.9l-16.2-18.8v-8.5l0.9-0.9h6l1.7,0.9l15.3,18.8h0.9l15.3-18.8l1.7-0.9h6l0.9,0.9v8.5L209,150.6v0.9l17.1,21.3v8.5L225.2,182.1
			z"/>
	</g>
</g>
</svg>
